<?xml version="1.0" encoding="utf-8"?>
<!-- Generator: Adobe Illustrator 17.1.0, SVG Export Plug-In . SVG Version: 6.00 Build 0)  -->
<!DOCTYPE svg PUBLIC "-//W3C//DTD SVG 1.1//EN" "http://www.w3.org/Graphics/SVG/1.1/DTD/svg11.dtd">
<svg version="1.1" id="Layer_1" xmlns="http://www.w3.org/2000/svg" xmlns:xlink="http://www.w3.org/1999/xlink" x="0px" y="0px"
	 width="45px" height="48.785px" viewBox="0 0 45 48.785" enable-background="new 0 0 45 48.785" xml:space="preserve">
<g>
	<path fill="#D3D9DD" d="M39.438,8.524c-1.617-0.914-4.198,0.556-5.766,3.283l-2.839,4.938c-1.037,2.053-0.895,4.497,0.42,6.384
		l0.083,0.119c1.315,1.887,3.079,3.631,3.663,4.253c0.343,0.366,0.605,0.817,0.75,1.334c0.48,1.714-0.521,3.493-2.236,3.972
		c-1.714,0.48-3.493-0.521-3.973-2.236c-0.12-0.43-0.147-0.865-0.093-1.281c0.092-0.708-0.135-1.862-1.151-2.995
		c-1.016-1.133-3.092,1.007-3.763,3.207l-0.031,0.101c-0.671,2.2-1.095,4.12-0.968,4.304c0.076,0.11,0.146,0.226,0.21,0.347
		c0.942,1.772,0.269,3.972-1.503,4.913c-1.772,0.942-3.972,0.269-4.914-1.503c-0.942-1.772-0.269-3.972,1.503-4.914
		c0.08-0.042,0.16-0.081,0.241-0.117c0.135-0.06,0.519-0.985,0.852-2.077c0.333-1.093,0.603-1.978,0.603-1.978
		c0.036-0.116,0.066-0.231,0.095-0.345l1.793-6.402l-1.918,3.936c-0.227-0.747-0.603-0.774-1.426-0.185
		c-0.497,0.355-1.317,1.054-1.718,1.341c-0.753,0.539-1.382,1.585-1.716,2.226c-0.196,0.377-0.471,0.721-0.822,1.006
		c-1.373,1.114-3.389,0.904-4.503-0.469c-1.114-1.373-0.904-3.389,0.469-4.503c0.402-0.327,0.86-0.54,1.334-0.643
		c0.807-0.175,3.55-1.851,5.203-3.034c0.296-0.212,0.544-0.412,0.746-0.597l4.413-3.352l-3.843,2.077c0,0-0.391-0.04-0.87,0.014
		c-1.407,0.156-2.856,0.354-3.129,0.703c-0.162,0.206-0.355,0.392-0.578,0.553c-1.283,0.924-3.072,0.633-3.996-0.65
		c-0.924-1.283-0.633-3.072,0.65-3.996c0.529-0.381,1.144-0.555,1.749-0.539c1.029,0.029,3.736,0.577,6.001,0.176l0.582-0.103
		c2.265-0.402,4.977-2.373,6.057-4.404c0,0,1.058-1.858,2.363-4.151c1.305-2.292,1.208-4.803-0.215-5.608l-2.578-1.457
		c-1.301-0.736-3.43-0.737-4.732-0.003L2.273,10.182C0.972,10.916,0,12.739,0,14.233v19.562c0,1.494,0.972,3.317,2.273,4.051
		l17.71,10.01c1.302,0.734,3.408,0.733,4.709-0.002l17.819-10.005C43.812,37.114,45,35.29,45,33.796V14.233
		c0-1.494-1.199-3.319-2.5-4.054C42.5,10.179,41.054,9.438,39.438,8.524z"/>
</g>
</svg>
